<svg xmlns="http://www.w3.org/2000/svg" version="1.1" viewBox="0 0 320 320" width="320.0pt" height="320.0pt">
    <path d="M 0.00 0.00 L 320.00 0.00 L 320.00 320.00 L 0.00 320.00 L 0.00 0.00 Z" fill="8B99B1" fill-opacity="0" />
    <path d="M 224.97 1.56 C 253.55 1.62 282.47 1.60 311.05 1.56 C 313.90 1.57 316.65 2.34 317.52 5.38 C 318.29 9.81 317.83 14.51 317.90 19.00 C 317.87 47.34 317.87 75.69 317.91 104.03 C 317.97 111.21 316.17 118.22 312.32 124.30 C 305.09 135.72 293.00 143.72 279.88 146.67 C 273.02 148.01 265.91 148.48 258.93 148.22 C 256.70 148.17 254.86 147.24 252.86 146.35 C 257.79 143.35 262.82 141.58 266.99 137.98 C 272.32 133.40 276.17 127.04 278.09 120.29 C 279.23 116.38 279.05 112.04 279.04 107.99 C 278.82 85.62 279.19 63.24 278.88 40.87 C 273.92 40.59 268.96 40.55 264.00 40.60 C 244.99 40.67 225.97 40.58 206.96 40.62 C 197.25 40.64 187.73 45.04 181.32 52.32 C 177.83 56.26 175.87 61.24 172.80 65.75 C 171.88 62.89 171.34 60.08 171.39 57.06 C 171.44 50.27 171.28 43.85 173.22 37.27 C 176.94 23.79 186.78 12.29 199.47 6.44 C 207.23 2.74 216.46 1.63 224.97 1.56 Z" fill="#cbd1db" />
    <path d="M 7.88 2.51 C 38.91 2.59 69.97 2.59 101.01 2.52 C 118.21 2.16 134.95 13.18 142.58 28.43 C 147.61 37.66 148.41 48.75 148.35 59.07 C 148.46 61.62 147.56 63.62 146.36 65.79 C 143.98 62.07 142.16 57.96 139.60 54.39 C 135.73 49.20 130.15 45.23 124.12 42.92 C 118.52 40.84 112.90 40.55 107.00 40.58 C 92.00 40.66 77.00 40.60 62.00 40.63 C 54.69 40.66 47.57 40.30 40.28 41.09 C 39.91 62.38 40.28 83.70 40.10 105.00 C 40.10 108.85 39.95 112.85 40.53 116.66 C 42.00 124.94 46.12 132.94 52.64 138.35 C 56.86 141.87 61.49 143.61 66.17 146.39 C 61.55 148.97 57.03 148.22 51.97 148.24 C 41.23 148.07 30.70 145.32 21.73 139.28 C 13.88 134.07 6.73 126.36 3.59 117.37 C 0.91 109.56 1.71 102.09 1.64 94.00 C 1.62 68.34 1.69 42.67 1.61 17.00 C 1.67 12.91 1.22 8.42 2.30 4.45 C 3.79 2.62 5.69 2.55 7.88 2.51 Z" fill="#cbd1db" />
    <path d="M 83.64 58.45 C 98.41 57.69 112.20 57.72 125.14 65.86 C 136.00 72.46 143.82 83.89 146.61 96.23 C 148.87 108.75 148.01 120.44 148.23 133.00 C 148.22 136.84 148.45 140.95 147.67 144.73 C 147.43 145.82 146.85 147.39 145.54 147.47 C 139.46 148.29 133.14 147.63 127.00 147.80 C 121.93 147.67 116.54 148.33 111.55 147.37 C 109.03 146.67 109.54 143.10 109.33 141.08 C 109.43 126.05 109.35 111.02 109.43 95.99 C 109.44 91.15 108.91 86.40 107.13 81.86 C 104.81 75.75 100.54 70.57 95.39 66.60 C 92.02 64.06 88.17 62.75 84.68 60.54 C 84.32 59.85 83.98 59.15 83.64 58.45 Z" fill="#cbd1db" />
    <path d="M 259.25 82.70 C 259.73 93.71 260.72 104.97 256.60 115.34 C 252.59 126.95 244.17 136.75 233.19 142.29 C 224.55 146.76 214.58 147.67 205.00 147.51 C 194.23 147.34 183.44 147.76 172.69 147.25 C 172.20 134.76 172.34 122.12 172.60 109.62 C 180.48 108.38 188.08 108.99 196.00 108.90 C 206.35 108.85 216.70 108.94 227.05 108.92 C 235.57 109.00 243.02 104.76 249.00 99.00 C 253.10 94.83 254.72 89.63 257.79 84.82 C 258.26 84.11 258.75 83.40 259.25 82.70 Z" fill="#cbd1db" />
    <path d="M 272.05 169.39 C 283.12 169.94 293.72 174.70 301.94 182.07 C 309.53 189.22 314.81 198.75 316.76 209.01 C 318.32 216.79 317.83 225.02 317.88 233.00 C 317.91 258.36 317.82 283.72 317.94 309.07 C 317.72 311.89 318.32 314.90 315.38 316.47 C 312.03 317.97 307.60 317.35 303.99 317.47 C 287.35 317.10 270.58 318.06 254.00 316.73 C 242.67 316.57 231.33 316.70 220.00 316.69 C 214.36 316.62 208.26 317.30 202.99 315.07 C 190.07 309.94 180.48 297.75 176.00 284.88 C 173.73 278.70 173.60 272.54 173.40 266.05 C 173.34 261.13 172.83 256.53 174.69 251.83 C 176.58 254.88 178.10 258.12 179.84 261.25 C 183.21 267.34 188.71 272.13 195.00 275.04 C 202.09 278.33 210.33 278.63 218.00 278.47 C 238.32 278.25 258.67 278.75 278.98 278.23 C 279.52 256.17 279.02 234.07 279.22 212.00 C 279.18 206.97 279.57 201.48 278.32 196.58 C 276.17 189.22 271.75 182.05 265.45 177.53 C 262.47 175.34 259.15 174.03 256.08 172.05 C 255.66 171.40 255.25 170.75 254.85 170.10 C 260.61 169.09 266.23 169.19 272.05 169.39 Z" fill="#cbd1db" />
    <path d="M 41.20 172.62 C 49.33 171.47 58.54 170.49 66.50 172.93 C 61.53 176.34 56.34 178.12 51.96 181.96 C 46.74 186.57 43.12 192.72 41.34 199.44 C 39.86 204.31 40.10 208.97 40.10 214.01 C 40.27 235.55 39.95 257.11 40.25 278.65 C 64.51 278.88 88.79 278.66 113.05 278.77 C 122.51 278.96 131.35 274.55 137.64 267.64 C 141.45 263.55 143.42 258.73 146.39 253.97 C 149.50 259.40 148.27 266.47 147.81 272.50 C 146.93 283.27 143.00 293.59 135.53 301.52 C 128.54 309.38 119.08 314.69 108.78 316.74 C 101.32 318.33 93.66 317.80 86.00 317.86 C 62.67 317.87 39.34 317.81 16.01 317.89 C 12.26 317.83 8.22 318.25 4.55 317.40 C 1.83 316.48 1.72 312.43 1.61 310.08 C 1.65 279.07 1.68 248.00 1.60 217.00 C 1.56 210.27 2.31 203.65 5.65 197.69 C 13.02 184.68 26.47 175.19 41.20 172.62 Z" fill="#cbd1db" />
    <path d="M 178.93 171.74 C 189.02 171.88 199.37 171.07 209.33 172.65 C 209.79 190.77 209.25 208.92 209.57 227.03 C 209.69 236.16 214.26 244.99 220.91 251.09 C 225.26 255.17 230.91 256.62 235.51 260.47 C 223.20 261.71 209.26 261.85 198.01 255.99 C 183.35 248.90 173.12 233.98 171.49 217.82 C 171.06 210.90 171.42 203.93 171.33 197.00 C 171.49 189.78 170.95 182.47 171.49 175.27 C 171.48 171.61 176.44 172.09 178.93 171.74 Z" fill="#cbd1db" />
    <path d="M 118.00 172.42 C 127.74 172.55 137.53 172.10 147.24 172.72 C 147.86 180.84 147.45 188.86 147.60 197.00 C 147.68 201.30 147.54 205.60 147.08 209.89 C 138.98 210.57 131.16 210.19 123.00 210.25 C 113.65 210.30 104.30 210.22 94.95 210.23 C 86.89 210.13 78.83 213.58 72.75 218.75 C 67.40 223.09 64.36 228.93 62.05 235.30 C 61.22 235.51 60.38 235.72 59.54 235.94 C 59.46 229.66 59.17 223.32 59.67 217.06 C 60.61 208.40 63.60 199.73 68.49 192.50 C 74.65 183.94 83.15 177.18 93.37 174.19 C 101.52 171.73 109.56 172.52 118.00 172.42 Z" fill="#cbd1db" />
</svg>