<svg width="241" height="241" viewBox="0 0 241 241" version="1.1" xmlns="http://www.w3.org/2000/svg" xmlns:svg="http://www.w3.org/2000/svg">
  <path id="path236" style="fill:#fff;stroke:#fff;stroke-width:5.86586;stroke-linejoin:miter;stroke-dasharray:none;stroke-opacity:1"
     d="M 124.58603,2.6136851 C 117.77242,2.5384468 111.10715,2.8970607 104.79116,3.7263785 79.051696,7.1059812 45.617271,8.8505209 27.496873,30.564215 18.102829,41.821058 20.857597,57.817029 20.857597,71.477726 v 95.474414 c 0,13.3255 -3.125336,30.75852 5.65568,41.96678 24.427264,31.17814 83.786053,31.38469 119.195493,26.97923 22.00421,-2.73727 52.66644,-8.52855 66.30668,-28.02839 7.39874,-10.57771 3.98767,-28.59618 3.98767,-40.91762 V 72.526895 c 0,-13.02616 3.19191,-29.90574 -4.9979,-40.91351 C 204.67558,23.105048 194.18458,17.811366 184.52802,13.986519 166.80679,6.9674248 145.02686,2.8393956 124.58603,2.6136851 Z m -6.41797,9.2089209 c 20.02513,-0.181788 40.75554,3.078434 59.01579,9.299084 10.33955,3.522269 22.57095,8.91637 28.23332,18.880952 5.25108,9.239187 -1.96423,17.810005 -9.34827,23.036646 C 181.39103,73.428259 162.20483,77.3889 144.65959,79.571904 116.69716,83.050947 85.171241,81.951211 58.627699,71.676495 48.773489,67.862138 36.826404,62.595028 31.828795,52.592676 26.93453,42.79722 35.365206,34.310263 42.890157,29.248655 59.129081,18.325553 79.58299,15.659525 98.496137,13.168904 104.89711,12.325976 111.49303,11.883202 118.16806,11.822606 Z M 30.300124,66.231879 c 44.301871,24.66427 96.665286,31.290207 145.834546,15.706804 11.58177,-3.67083 20.66865,-10.897522 31.47509,-15.706804 0,12.108662 3.44585,29.82525 -4.6065,39.852051 -7.86142,9.78769 -21.52938,14.67885 -33.1636,18.1453 -30.63047,9.12777 -67.80995,9.006 -98.621928,0.87703 C 57.776521,121.56008 41.318119,115.97929 33.082881,104.00197 26.834979,94.915237 30.300124,76.870762 30.300124,66.231879 Z m 0,49.310951 c 42.902594,24.41521 93.497836,31.42399 141.637876,17.07976 13.28982,-3.95957 23.37026,-11.6052 35.67176,-17.07976 0,12.21338 3.35183,29.66838 -4.75405,39.82748 -7.97262,9.98913 -23.14547,15.18273 -35.11439,18.26414 -30.88962,7.9527 -65.56159,8.75592 -96.523588,0.49999 -13.202943,-3.521 -29.973924,-8.86932 -37.923787,-20.82354 -6.300046,-9.47294 -2.993821,-26.81474 -2.993821,-37.76807 z m 0,48.26182 c 51.226066,33.74335 126.040966,33.77168 177.309636,0 0,11.84509 3.46703,29.84379 -4.13314,39.77417 -8.12058,10.61129 -23.28691,15.81527 -35.7353,19.1002 -30.83716,8.13527 -64.55752,8.26617 -95.474418,0.53484 -13.246067,-3.31224 -30.95668,-8.62933 -38.972957,-20.59406 -6.443888,-9.61772 -2.993821,-27.66565 -2.993821,-38.81515 z" />
</svg>
