<svg xmlns="http://www.w3.org/2000/svg" xmlns:xlink="http://www.w3.org/1999/xlink" version="1.1" x="0px" y="0px" viewBox="0 0 490 490">
    <g>
        <path d="M237,157.225 L237.191,157.229 L243.591,157.353 L246.609,157.413 L247.17,160.378 C249.378,172.053 257.384,181.52 268.755,184.563 C281.033,187.849 292.752,184.777 300.817,176.372 L303.224,173.863 L305.887,176.097 C307.67,177.593 309.176,178.797 312.628,181.508 C312.632,181.51 312.632,181.51 312.635,181.513 C319.745,187.099 322.743,189.615 325.887,192.91 L327.875,194.992 L326.355,197.437 C320.443,206.947 319.714,220.277 324.854,230.454 L324.906,230.56 C329.944,241.372 340.746,247.468 353.646,247.512 L356.584,247.521 L357.252,250.383 C359.279,259.075 360.051,267.882 359.563,276.793 L359.404,279.699 L356.543,280.241 C344.868,282.45 335.402,290.454 332.358,301.825 C329.073,314.105 332.144,325.823 340.55,333.888 L343.058,336.295 L340.823,338.957 C339.331,340.737 338.124,342.248 335.427,345.682 C335.42,345.69 335.42,345.69 335.413,345.7 C329.823,352.816 327.308,355.813 324.012,358.959 L321.928,360.946 L319.484,359.426 C309.316,353.386 297.225,352.97 286.54,357.892 C275.434,364.177 269.828,374.102 269.41,386.717 L269.399,389.655 L266.537,390.324 C257.846,392.351 249.039,393.121 240.128,392.633 L237.221,392.475 L236.679,389.614 C234.471,377.94 226.467,368.473 215.095,365.429 C202.817,362.143 191.098,365.215 183.034,373.62 L180.627,376.129 L177.963,373.895 C176.184,372.402 174.672,371.194 171.24,368.498 L171.22,368.483 C164.105,362.893 161.108,360.378 157.963,357.082 L155.975,355 L157.495,352.555 C163.535,342.388 163.952,330.295 159.028,319.611 C152.745,308.504 142.82,302.899 130.204,302.48 L127.265,302.47 L126.598,299.609 C124.57,290.918 123.8,282.111 124.287,273.199 L124.447,270.292 L127.307,269.751 C138.983,267.543 148.448,259.538 151.491,248.166 C154.778,235.888 151.706,224.169 143.3,216.104 L140.792,213.697 L143.026,211.035 C144.523,209.251 145.726,207.744 148.439,204.29 C148.44,204.29 148.44,204.29 148.441,204.288 C154.029,197.175 156.544,194.178 159.838,191.033 L161.921,189.046 L164.366,190.566 C174.534,196.606 186.625,197.022 197.31,192.1 C208.417,185.816 214.023,175.89 214.441,163.275 L214.45,160.287 L217.372,159.655 C221.084,158.854 224.034,158.336 226.967,158.02 L227.089,158.008 C228.291,157.919 231.601,157.674 232.071,157.637 C232.591,157.597 236.498,157.267 236.808,157.241 L237,157.225 z M239.76,214.527 L236.652,214.719 C203.362,217.632 178.736,246.98 181.649,280.27 C184.561,313.559 213.909,338.185 247.199,335.272 C280.488,332.361 305.114,303.013 302.202,269.722 C298.496,236.941 272.678,214.283 239.76,214.527 z" fill="#CCC"/>
        <path d="M38.586,318.867 L143.858,358.977 L98.718,385.04 C132.414,427.533 184.402,450.506 238.018,451.91 C285.368,451.83 330.61,432.706 364.253,399.644 L369.12,429.886 L370.094,435.933 L375.816,433.752 L392.679,427.328 C352.238,468.988 295.433,490.216 238.018,491.658 C169.967,491.614 105.424,458.773 64.007,405.079 L20.686,430.09 L38.586,318.867 z M270.572,57.475 L292.827,75.589 L297.577,79.455 L292.827,83.321 L274.274,98.421 C355.981,115.024 416.011,190.01 416.6,273.33 C415.786,297.193 412.325,321.07 402.438,343.027 L357.139,316.873 L375.039,428.096 L480.31,387.986 L437.103,363.042 C450.065,334.949 456.11,304.211 456.348,273.33 C453.776,166.588 378.197,72.681 270.572,57.475 z M201.312,8.342 L201.312,58.126 C98.429,75.125 19.573,169.118 19.69,273.33 C20.344,295.055 22.524,316.916 29.356,337.665 L32.669,317.079 L33.641,311.032 L39.365,313.213 L66.749,323.648 C61.933,307.345 59.353,290.329 59.436,273.33 C62.312,188.283 117.448,115.993 201.312,98.586 L201.312,150.568 L288.684,79.455 L201.312,8.342 z" fill="#CCC"/>
    </g>
</svg>